<svg id="svg" version="1.1" viewBox="0 0 300 259.72762645914395" width="300" height="259.72762645914395" xmlns="http://www.w3.org/2000/svg"><svg xmlns="http://www.w3.org/2000/svg"><defs><clipPath id="clip-1"><rect x="0" y="0" transform="scale(0.14648,0.14649)" width="2048" height="1773" fill="none"/></clipPath><linearGradient x1="52.57734" y1="228.85915" x2="172.05762" y2="110.65657" gradientUnits="userSpaceOnUse" id="color-1"><stop offset="0" stop-color="#2c3f4e"/><stop offset="1" stop-color="#445e66"/></linearGradient><linearGradient x1="163.71387" y1="109.69354" x2="213.79541" y2="238.69159" gradientUnits="userSpaceOnUse" id="color-2"><stop offset="0" stop-color="#243b48"/><stop offset="1" stop-color="#4a5c68"/></linearGradient></defs><g clip-path="url(#clip-1)" fill="none" fill-rule="nonzero" stroke="none" stroke-width="1" stroke-linecap="butt" stroke-linejoin="miter" stroke-miterlimit="10" stroke-dasharray="" stroke-dashoffset="0" font-family="none" font-weight="none" font-size="none" text-anchor="none" style="mix-blend-mode: normal"><path d="M34.06172,77.38829c3.06812,-1.40733 6.22632,-3.13285 9.26206,-4.67422l17.8998,-9.08285l57.94863,-29.5297l20.94199,-10.57954l6.5064,-3.3791c1.7124,-0.89755 3.84668,-2.12397 5.66455,-2.66305l76.88818,39.40902c10.27295,5.3198 20.58545,10.56358 30.93604,15.73088c1.8252,0.87601 3.63867,1.7781 5.4375,2.70597c1.21289,0.63299 2.91943,1.6114 4.14844,2.11313l-22.52344,11.34715c-2.74512,1.39605 -7.26416,3.50229 -9.70312,4.99708c6.25635,3.3873 13.021,6.42844 19.35059,9.72433c4.44434,2.31411 8.76123,4.81778 13.32275,6.94336l-16.47656,8.68073c-2.39795,1.24121 -14.73633,7.00181 -15.76318,8.12788l0.07471,0.11119l21.16553,10.73848c2.50342,1.28794 5.02002,2.55377 7.54688,3.79747c0.84082,0.42424 2.25146,1.24912 3.05713,1.58122c-0.17578,2.23222 -0.09375,5.25432 -0.08057,7.54836l0.03809,11.22703l0.00439,36.01029c-0.01172,4.02409 0.15088,8.5902 0.0542,12.51322l-34.39307,17.69312l-12.62109,6.51736c-1.97754,1.00785 -5.24268,2.79064 -7.25098,3.46743l0.00293,-27.88593c0.00439,-3.44839 -0.11279,-7.72298 0.01172,-11.09372c-0.79102,0.32081 -2.7627,1.4107 -3.56104,1.8531c-3.2124,1.77986 -6.16992,3.48501 -9.44678,5.16965l-33.82031,17.34887l-11.72461,6.0105c-1.67285,0.83939 -3.38965,1.78132 -5.09619,2.51964c-2.15479,-0.70462 -4.43701,-2.34971 -6.53657,-3.37368c-9.52793,-4.70381 -18.97632,-9.56583 -28.34121,-14.58606c-6.63296,-3.47915 -13.51816,-6.73856 -20.14644,-10.25433c-2.87109,-1.5235 -5.88428,-2.9093 -8.65811,-4.58808c-0.08335,4.38739 0.20186,10.11224 -0.03267,14.22423c0.07046,8.17124 -0.08335,16.4919 0.05977,24.6148c-1.73965,-0.5508 -4.29463,-1.95565 -5.96104,-2.8258c-14.60728,-7.6219 -29.35913,-14.95082 -43.93623,-22.63571c-1.49604,-0.78812 -3.01289,-1.42828 -4.42485,-2.35996c-0.13286,-1.77693 -0.02534,-5.08761 -0.0249,-6.94511l0.04922,-15.30386l-0.05186,-44.76881c4.54629,-2.71374 11.8311,-5.95162 16.68018,-8.4005l10.2063,-5.26062c1.51699,-0.77655 3.6063,-1.91287 5.11714,-2.53736l0.51138,-0.10547c0.7248,-0.53528 4.68252,-2.62526 5.69546,-3.14515c5.2519,-2.69586 10.51816,-5.39349 15.77285,-8.09126l0.10635,-0.26354c-0.12788,-3.21019 0.08599,-7.50764 0.08877,-10.87208c-5.13354,-2.6254 -10.36055,-5.09465 -15.45645,-7.79476c-2.0502,-1.08637 -4.39585,-2.15942 -6.3416,-3.36137l-0.09917,0.02066c-5.46636,-3.07396 -12.12144,-6.24298 -17.77676,-9.13617c-4.45063,-2.27676 -9.85459,-5.18386 -14.30112,-7.24835z" fill="#b89d23"/><path d="M66.37339,127.28031c1.10024,0.76805 4.42075,2.35132 5.76943,3.0473l11.45332,5.94239c1.03345,0.53235 3.86777,1.91126 4.69849,2.49825c3.5064,1.66618 6.83569,3.44795 10.28657,5.21345c5.73062,2.87502 11.43926,5.79458 17.12505,8.75662c12.06328,6.05445 24.04541,12.26858 35.94316,18.64238l62.94141,-32.23245l16.42969,-8.37061c1.19971,-0.61336 6.15674,-3.35434 6.95654,-3.40708l21.16553,10.73848c2.50342,1.28794 5.02002,2.55377 7.54688,3.79747c0.84082,0.42424 2.25146,1.24912 3.05713,1.58122c-0.17578,2.23222 -0.09375,5.25432 -0.08057,7.54836l0.03809,11.22703l0.00439,36.01029c-0.01172,4.02409 0.15088,8.5902 0.0542,12.51322l-34.39307,17.69312l-12.62109,6.51736c-1.97754,1.00785 -5.24268,2.79064 -7.25098,3.46743l0.00293,-27.88593c0.00439,-3.44839 -0.11279,-7.72298 0.01172,-11.09372c-0.79102,0.32081 -2.7627,1.4107 -3.56104,1.8531c-3.2124,1.77986 -6.16992,3.48501 -9.44678,5.16965l-33.82031,17.34887l-11.72461,6.0105c-1.67285,0.83939 -3.38965,1.78132 -5.09619,2.51964c-2.15479,-0.70462 -4.43701,-2.34971 -6.53657,-3.37368c-9.52793,-4.70381 -18.97632,-9.56583 -28.34121,-14.58606c-6.63296,-3.47915 -13.51816,-6.73856 -20.14644,-10.25433c-2.87109,-1.5235 -5.88428,-2.9093 -8.65811,-4.58808c-0.08335,4.38739 0.20186,10.11224 -0.03267,14.22423c0.07046,8.17124 -0.08335,16.4919 0.05977,24.6148c-1.73965,-0.5508 -4.29463,-1.95565 -5.96104,-2.8258c-14.60728,-7.6219 -29.35913,-14.95082 -43.93623,-22.63571c-1.49604,-0.78812 -3.01289,-1.42828 -4.42485,-2.35996c-0.13286,-1.77693 -0.02534,-5.08761 -0.0249,-6.94511l0.04922,-15.30386l-0.05186,-44.76881c4.54629,-2.71374 11.8311,-5.95162 16.68018,-8.4005l10.2063,-5.26062c1.51699,-0.77655 3.6063,-1.91287 5.11714,-2.53736z" fill="url(#color-1)"/><path d="M151.64941,171.38068l62.94141,-32.23245l16.42969,-8.37061c1.19971,-0.61336 6.15674,-3.35434 6.95654,-3.40708l21.16553,10.73848c2.50342,1.28794 5.02002,2.55377 7.54688,3.79747c0.84082,0.42424 2.25146,1.24912 3.05713,1.58122c-0.17578,2.23222 -0.09375,5.25432 -0.08057,7.54836l0.03809,11.22703l0.00439,36.01029c-0.01172,4.02409 0.15088,8.5902 0.0542,12.51322l-34.39307,17.69312l-12.62109,6.51736c-1.97754,1.00785 -5.24268,2.79064 -7.25098,3.46743l0.00293,-27.88593c0.00439,-3.44839 -0.11279,-7.72298 0.01172,-11.09372l0.00146,-0.13917c0.18604,-0.85404 0.06299,-6.61698 0.06299,-7.88705l0.05566,-19.92271c-0.1377,-0.01758 -0.42773,-0.01025 -0.57861,-0.01025c0.5918,-1.15142 0.35742,-3.93034 0.35596,-5.34251c-0.01025,-3.99773 -0.06006,-7.99399 -0.14941,-11.99025c-15.67236,7.65999 -30.89502,16.34394 -46.77539,23.58057c-5.09912,2.3248 -11.42285,6.64481 -16.58789,8.31041c-1.47217,-0.48049 -4.41943,-2.07431 -5.83652,-2.80676l-11.29116,-5.93433c-2.47646,-1.27154 -5.05386,-2.28672 -7.53413,-3.53482c-3.05698,-1.53669 -6.01582,-3.26381 -9.0501,-4.84444c-3.21108,-1.67292 -28.96875,-14.58459 -29.72007,-15.74333c-0.19277,-0.29738 -0.2187,-0.88773 -0.24214,-1.2437c-0.14854,-2.25595 -0.03193,-4.54853 -0.10723,-6.81195c-0.06108,-1.83699 -0.40195,-3.97927 -0.18647,-5.79677c0.04409,-0.37106 0.08306,-0.386 0.36548,-0.59959c3.5064,1.66618 6.83569,3.44795 10.28657,5.21345c5.73062,2.87502 11.43926,5.79458 17.12505,8.75662c12.06328,6.05445 24.04541,12.26858 35.94316,18.64238z" fill="url(#color-2)"/><path d="M190.45605,184.31726c1.4707,-0.98149 7.29346,-3.66519 9.15088,-4.62031c5.18994,-2.67199 10.73291,-5.83472 16.02539,-8.16098l-0.05566,19.92271c0,1.27007 0.12305,7.03301 -0.06299,7.88705l-0.00146,0.13917c-0.79102,0.32081 -2.7627,1.4107 -3.56104,1.8531c-3.2124,1.77986 -6.16992,3.48501 -9.44678,5.16965l-33.82031,17.34887l-11.72461,6.0105c-1.67285,0.83939 -3.38965,1.78132 -5.09619,2.51964c-2.15479,-0.70462 -4.43701,-2.34971 -6.53657,-3.37368c-9.52793,-4.70381 -18.97632,-9.56583 -28.34121,-14.58606c-6.63296,-3.47915 -13.51816,-6.73856 -20.14644,-10.25433c-2.87109,-1.5235 -5.88428,-2.9093 -8.65811,-4.58808l0.0498,-2.28965c3.37178,-1.30084 6.4021,-3.33559 9.62153,-4.9631c4.09614,-2.07138 8.17632,-4.17937 12.21401,-6.36355c0.91289,-0.49514 1.90181,-1.00346 2.70981,-1.65241c12.96548,6.47781 25.87397,13.06988 38.72388,19.77475c2.99707,-1.13237 7.58789,-3.76188 10.57031,-5.27805c4.07959,-2.03622 8.1416,-4.11052 12.18164,-6.22438c5.20166,-2.72912 10.90283,-5.79956 16.2041,-8.27085z" fill="#5dab9a"/><path d="M190.45605,184.31726c1.4707,-0.98149 7.29346,-3.66519 9.15088,-4.62031c5.18994,-2.67199 10.73291,-5.83472 16.02539,-8.16098l-0.05566,19.92271c0,1.27007 0.12305,7.03301 -0.06299,7.88705l-0.08643,-1.88094c-6.33838,-3.24916 -12.73535,-6.32692 -18.97559,-9.75041c-1.15576,-0.63284 -5.15039,-2.61925 -5.99561,-3.39711z" fill="#49a390"/><path d="M88.16309,171.79525c5.41611,2.71447 10.81743,5.45824 16.20381,8.22984c2.53813,1.28912 6.07002,2.87707 8.40923,4.29071c-0.80801,0.64895 -1.79692,1.15727 -2.70981,1.65241c-4.0377,2.18417 -8.11787,4.29217 -12.21401,6.36355c-3.21943,1.62751 -6.24976,3.66226 -9.62153,4.9631l-0.0498,2.28965c-0.08335,4.38739 0.20186,10.11224 -0.03267,14.22423c-0.16802,-0.7471 -0.14297,-3.87028 -0.14854,-4.79463c-0.02036,-3.94792 0.0019,-7.89584 0.06665,-11.84376c0.08862,-8.47008 -0.03779,-16.92698 0.09668,-25.37508z" fill="#49a390"/><path d="M34.06172,77.38829c3.06812,-1.40733 6.22632,-3.13285 9.26206,-4.67422l17.8998,-9.08285l57.94863,-29.5297l20.94199,-10.57954l6.5064,-3.3791c1.7124,-0.89755 3.84668,-2.12397 5.66455,-2.66305l76.88818,39.40902c10.27295,5.3198 20.58545,10.56358 30.93604,15.73088c1.8252,0.87601 3.63867,1.7781 5.4375,2.70597c1.21289,0.63299 2.91943,1.6114 4.14844,2.11313l-22.52344,11.34715c-2.74512,1.39605 -7.26416,3.50229 -9.70312,4.99708l-0.46875,0.12877c-1.25537,-1.19214 -3.04102,-1.73782 -4.27881,-2.4959c-2.15918,-1.3234 -16.11475,-8.19438 -16.90723,-9.31357c-2.54004,-1.23579 -7.62744,-4.24632 -9.93018,-5.73657c-4.56006,2.56241 -9.65479,4.7416 -14.34375,7.16236c-13.11914,6.83862 -26.30713,13.54671 -39.55957,20.12354c-2.19727,-1.39591 -5.31299,-2.85905 -7.69482,-4.03098l-12.05054,-5.92056l-34.61763,-17.51499c-0.95229,1.31578 -4.76953,3.31962 -6.28696,4.21497c-2.40029,1.41598 -3.45645,1.55046 -3.49731,4.71318c-0.30366,-0.47976 0.2606,-1.68933 -0.28477,-2.1745c-0.27319,0.08233 -0.54785,0.15997 -0.82368,0.23292c-4.44829,2.48946 -8.94214,4.89659 -13.4792,7.22052c-2.31475,1.15786 -4.7272,2.13026 -7.00679,3.35991l-0.09917,0.02066c-5.46636,-3.07396 -12.12144,-6.24298 -17.77676,-9.13617c-4.45063,-2.27676 -9.85459,-5.18386 -14.30112,-7.24835z" fill="#d7b642"/><path d="M97.61748,76.18516c1.73833,-1.05634 4.44404,-2.35396 6.3,-3.31786l15.03809,-7.68621c5.71772,-2.96731 11.58384,-5.8126 17.22847,-8.7531l9.83965,-5.00411c1.85962,-0.94281 4.37183,-2.31308 6.24829,-3.11409c1.94678,1.26187 4.91162,2.56886 7.03711,3.67003l34.99365,17.91154c3.77344,1.94466 7.48389,4.02995 11.2793,5.9333c0.08789,0.04395 0.20508,0.22853 0.24463,0.32887l0.05713,0.21226c-4.56006,2.56241 -9.65479,4.7416 -14.34375,7.16236c-13.11914,6.83862 -26.30713,13.54671 -39.55957,20.12354c-2.19727,-1.39591 -5.31299,-2.85905 -7.69482,-4.03098l-12.05054,-5.92056z" fill="#bdab34"/><path d="M88.13833,71.74342c2.20854,0.89799 4.31118,2.039 6.46172,3.05901c0.84873,0.40256 2.17104,1.11391 3.01743,1.38272c-0.95229,1.31578 -4.76953,3.31962 -6.28696,4.21497c-2.40029,1.41598 -3.45645,1.55046 -3.49731,4.71318c-0.30366,-0.47976 0.2606,-1.68933 -0.28477,-2.1745c-0.27319,0.08233 -0.54785,0.15997 -0.82368,0.23292c0.41792,-0.30177 0.98657,-0.63841 1.43203,-0.9204c-0.3186,-2.70905 -0.14678,-7.7952 -0.01846,-10.50791z" fill="#bdab34"/><path d="M205.82666,76.15352c1.65234,-0.36022 7.86914,-3.7169 9.90674,-4.64536c0.02783,2.97244 0.23291,7.77469 0.08057,10.59419c-2.54004,-1.23579 -7.62744,-4.24632 -9.93018,-5.73657z" fill="#bdab34"/><path d="M88.03682,104.90828c1.63623,0.73714 8.70718,4.07742 9.98833,5.03078c4.56533,2.14286 8.76592,4.43646 13.25068,6.68876c6.86777,3.36928 13.70273,6.80492 20.504,10.30663c6.1894,3.22089 13.82256,7.32057 20.14058,10.17757c12.55225,-6.22394 25.05762,-12.54046 37.51611,-18.94913c5.26318,-2.66715 10.85742,-5.65849 16.21143,-8.12026c0.37354,0.84188 0.56836,0.74754 1.30518,1.20166c2.47998,1.52658 5.51367,2.70509 7.95703,4.21966l0.6665,0.19351c0.76758,0.5571 1.30518,0.74315 2.56055,1.43297c6.31494,3.47021 12.94922,6.52644 19.17334,10.17025c0,0.00044 0.57568,-0.00132 0.5918,-0.00132l0.07471,0.11119c-0.7998,0.05274 -5.75684,2.79372 -6.95654,3.40708l-16.42969,8.37061l-62.94141,32.23245c-11.89775,-6.3738 -23.87988,-12.58793 -35.94316,-18.64238c-5.68579,-2.96204 -11.39443,-5.88159 -17.12505,-8.75662c-3.45088,-1.7655 -6.78018,-3.54727 -10.28657,-5.21345c-0.83071,-0.58699 -3.66504,-1.9659 -4.69849,-2.49825l-11.45332,-5.94239c-1.34868,-0.69598 -4.66919,-2.27925 -5.76943,-3.0473c0.7248,-0.53528 4.68252,-2.62526 5.69546,-3.14515c5.2519,-2.69586 10.51816,-5.39349 15.77285,-8.09126l0.10635,-0.26354c-0.12788,-3.21019 0.08599,-7.50764 0.08877,-10.87208z" fill="#268576"/><path d="M88.03682,104.90828c1.63623,0.73714 8.70718,4.07742 9.98833,5.03078c4.56533,2.14286 8.76592,4.43646 13.25068,6.68876c6.86777,3.36928 13.70273,6.80492 20.504,10.30663c6.1894,3.22089 13.82256,7.32057 20.14058,10.17757c12.55225,-6.22394 25.05762,-12.54046 37.51611,-18.94913c5.26318,-2.66715 10.85742,-5.65849 16.21143,-8.12026c0.37354,0.84188 0.56836,0.74754 1.30518,1.20166c2.47998,1.52658 5.51367,2.70509 7.95703,4.21966c0.94922,0.88261 0.66357,1.63718 0.64307,2.93962c-1.82373,1.67629 -5.74512,3.47168 -8.00098,4.74615c-8.44775,4.77134 -17.34961,8.73142 -25.84717,13.43025c-1.86621,1.03173 -3.94775,1.88738 -5.85498,2.87326l-17.35107,8.93724c-1.61572,0.82181 -5.17676,2.92249 -6.66797,3.33412c-8.27651,-4.11345 -16.38472,-8.37647 -24.58125,-12.60917l-24.10166,-12.26609c-4.93857,-2.53194 -10.31382,-5.53719 -15.23599,-7.93261c0.00249,-0.7304 0.04819,-2.22167 -0.07046,-2.87282l0.10635,-0.26354c-0.12788,-3.21019 0.08599,-7.50764 0.08877,-10.87208z" fill="#28756a"/><path d="M88.03682,104.90828c1.63623,0.73714 8.70718,4.07742 9.98833,5.03078c-0.06094,0.25797 -0.11558,0.46364 -0.19233,0.71722c-2.77588,1.52995 -5.64463,2.88352 -8.42417,4.40643c-0.47563,0.26046 -0.94907,0.53323 -1.4606,0.71766c-0.12788,-3.21019 0.08599,-7.50764 0.08877,-10.87208z" fill="#268576"/><path d="M237.46875,93.78306c6.25635,3.3873 13.021,6.42844 19.35059,9.72433c4.44434,2.31411 8.76123,4.81778 13.32275,6.94336l-16.47656,8.68073c-2.39795,1.24121 -14.73633,7.00181 -15.76318,8.12788c-0.01611,0 -0.5918,0.00176 -0.5918,0.00132c-6.22412,-3.6438 -12.8584,-6.70004 -19.17334,-10.17025c-1.25537,-0.68982 -1.79297,-0.87587 -2.56055,-1.43297c0.12012,-1.60026 0.21094,-9.38462 -0.00293,-10.78609c1.74316,-1.09194 4.87793,-2.4647 6.75732,-3.46245c4.65527,-2.46983 10.14697,-4.91607 14.66895,-7.49709z" fill="#49a390"/><path d="M215.57373,104.87136c0.21387,1.40147 0.12305,9.18583 0.00293,10.78609l-0.6665,-0.19351c-2.44336,-1.51457 -5.47705,-2.69308 -7.95703,-4.21966c-0.73682,-0.45412 -0.93164,-0.35978 -1.30518,-1.20166c1.97754,-1.3294 7.82959,-4.19446 9.92578,-5.17126z" fill="#268576"/><path d="M66.23877,93.75215c1.94575,1.20195 4.29141,2.275 6.3416,3.36137c5.0959,2.70011 10.3229,5.16936 15.45645,7.79476c-0.00278,3.36445 -0.21665,7.66189 -0.08877,10.87208l-0.10635,0.26354c-5.25469,2.69777 -10.52095,5.39539 -15.77285,8.09126c-1.01294,0.51989 -4.97065,2.60987 -5.69546,3.14515l-0.51138,0.10547c-0.25576,-0.51828 -3.07046,-1.88812 -3.75938,-2.27558c-9.29458,-5.22663 -19.39219,-9.40425 -28.54336,-14.85663c3.94292,-1.71423 8.17295,-4.13455 12.04175,-6.10279c6.87012,-3.41176 13.7165,-6.87114 20.53857,-10.37797z" fill="#49a390"/><path d="M210.86279,202.57436c0.28418,0.39552 0.05273,2.36582 0.03076,2.95032c-0.01611,0.4424 -0.11426,0.39113 -0.45703,0.63284c-0.71484,-0.7515 -0.10107,-2.83459 0.42627,-3.58316z" fill="#eaedeb"/></g></svg></svg>